<svg width="32" height="32" viewBox="0 0 32 32" fill="none" xmlns="http://www.w3.org/2000/svg">
<ellipse cx="15.7026" cy="8.3648" rx="7.70258" ry="4.3648" fill="white"/>
<path d="M9 10H23L21.5 25.5C21.5 25.5 18.2263 27 16 27C13.7737 27 10.5 25.5 10.5 25.5L9 10Z" fill="white"/>
<path d="M9.91742 21.8149L9.22597 16.6794C9.12437 15.9248 9.88454 15.2956 10.627 15.464C11.7419 15.7169 13.3777 15.9789 15.3702 15.9789C19.2221 15.9789 22.9999 15 22.9999 15L21.9999 22.5C21.9999 22.5 19.1327 23.4178 15.6665 23.4178C12.5161 23.4178 10.4737 22.6707 9.91742 21.8149Z" fill="url(#paint0_linear)"/>
<path fill-rule="evenodd" clip-rule="evenodd" d="M10.5674 4.10762C11.6507 3.70694 13.3334 3.4502 15.8126 3.4502C20.6209 3.45019 22.3775 4.41271 23.0968 5.32205C23.4642 5.78656 23.5883 6.30597 23.6281 6.77963C23.654 7.08748 23.6449 7.42897 23.637 7.72097C23.6336 7.84629 23.6305 7.9625 23.6305 8.06302C23.6305 8.31556 23.5429 8.53584 23.4096 8.72535C23.6323 8.62771 23.8816 8.61885 24.1205 8.72954L24.1431 8.73999L24.1646 8.75242C24.3817 8.87787 24.5164 9.07395 24.5955 9.25113C24.6765 9.43264 24.7175 9.63336 24.7239 9.82808C24.7358 10.1942 24.6227 10.6869 24.2115 10.984C24.1023 11.0628 23.9075 11.1799 23.6222 11.3155C23.5726 12.5913 23.3113 15.511 23.0546 18.1945C22.9111 19.6945 22.7677 21.1346 22.6601 22.1996C22.6063 22.7322 22.5615 23.171 22.5301 23.4768L22.4808 23.9549C22.4808 23.9549 22.4808 23.9554 21.9338 23.8985L22.4808 23.9549L22.4802 23.9606C22.3563 25.0522 21.7908 26.0002 20.7012 26.6547C19.6378 27.2935 18.1058 27.6361 16.05 27.6361C14.3052 27.6361 12.7724 27.4491 11.6052 26.9056C10.3991 26.3438 9.59376 25.4032 9.35416 23.9905L9.35074 23.9703L8.29269 12.7083C8.26427 12.4059 8.4864 12.1377 8.78883 12.1093C9.09125 12.0808 9.35945 12.303 9.38786 12.6054L10.442 23.826C10.6197 24.8413 11.1687 25.4888 12.0696 25.9084C13.0152 26.3488 14.3523 26.5361 16.05 26.5361C18.0065 26.5361 19.3118 26.2061 20.1348 25.7117C20.9308 25.2336 21.3011 24.5888 21.3869 23.839C21.387 23.8381 21.3871 23.8373 21.3872 23.8365L21.3875 23.8337L21.4359 23.3644C21.4672 23.0592 21.512 22.621 21.5657 22.0891C21.6731 21.0252 21.8164 19.5872 21.9596 18.0897C22.1906 15.6749 22.4178 13.1411 22.4991 11.7555C21.1235 12.204 18.9312 12.6445 15.802 12.5842C13.188 12.5338 11.2047 12.2713 9.8493 11.8946C9.17448 11.7071 8.6269 11.4836 8.23067 11.2244C7.85362 10.9777 7.50065 10.6219 7.4635 10.1389C7.42718 9.66651 7.44927 9.18137 7.65867 8.79813C7.77084 8.59283 7.9346 8.42093 8.15362 8.30558C8.36724 8.19308 8.60295 8.15027 8.84027 8.15027C9.01085 8.15027 9.17577 8.19195 9.31476 8.23622C9.45781 8.28179 9.61443 8.34402 9.77425 8.40933C9.82055 8.42825 9.86804 8.44781 9.91687 8.46792C10.2139 8.59024 10.5606 8.73305 10.9907 8.87686C11.9825 9.20847 13.4252 9.54669 15.5364 9.54669C17.6735 9.54669 19.507 9.29667 20.7892 8.93264C21.434 8.74957 21.911 8.54553 22.214 8.34897C22.4988 8.16426 22.5281 8.05634 22.5305 8.05407C22.5307 7.8926 22.5349 7.74581 22.5389 7.60666C22.5463 7.35052 22.5529 7.12025 22.532 6.87184C22.5024 6.51965 22.4189 6.23816 22.2341 6.00446C21.8488 5.51739 20.5591 4.55019 15.8126 4.5502C13.3863 4.5502 11.8542 4.80451 10.949 5.13931C10.01 5.48661 9.93291 5.83496 9.93291 5.92001C9.93291 6.02187 9.96058 6.13385 10.0639 6.26013C10.1748 6.39567 10.3917 6.56922 10.8071 6.73842C11.6483 7.08095 13.1695 7.35232 15.8126 7.35232C17.8724 7.35232 19.2723 7.10416 20.1754 6.83534C21.0935 6.56206 21.4725 6.27561 21.5229 6.22704C21.7417 6.01631 22.0898 6.02283 22.3006 6.2416C22.5113 6.46037 22.5048 6.80855 22.286 7.01928C22.0603 7.23669 21.4965 7.58982 20.4892 7.88963C19.467 8.19388 17.9591 8.45232 15.8126 8.45232C13.1276 8.45232 11.4339 8.18138 10.3923 7.75718C9.86636 7.54301 9.47478 7.27709 9.21265 6.95679C8.94294 6.62722 8.83291 6.26699 8.83291 5.92001C8.83291 5.10736 9.51791 4.4958 10.5674 4.10762ZM22.5407 10.5766C21.3731 11.0096 19.199 11.5494 15.8232 11.4844C13.2597 11.435 11.3772 11.1776 10.1438 10.8348C9.5243 10.6626 9.0968 10.4765 8.8329 10.3039C8.5936 10.1473 8.56217 10.0528 8.55977 10.048C8.52804 9.62698 8.57475 9.41564 8.62397 9.32556C8.64124 9.29396 8.65437 9.28508 8.66618 9.27886C8.68338 9.2698 8.73244 9.25027 8.84027 9.25027C8.84027 9.25027 8.84008 9.25027 8.84027 9.25027C8.84027 9.25029 8.85011 9.25057 8.87355 9.25526C8.89905 9.26037 8.93389 9.26936 8.98088 9.28433C9.07756 9.31512 9.19761 9.36199 9.35814 9.42759C9.40132 9.44524 9.44669 9.46394 9.49425 9.48353C9.79127 9.60594 10.1737 9.76353 10.6419 9.9201C11.7384 10.2867 13.2987 10.6467 15.5364 10.6467C17.7484 10.6467 19.687 10.389 21.0896 9.99082C21.7872 9.79276 22.3807 9.55203 22.8127 9.27181C22.8311 9.25988 22.8495 9.24765 22.8679 9.23513C22.6849 9.55321 22.5735 9.99591 22.5407 10.5766Z" fill="black"/>
<defs>
<linearGradient id="paint0_linear" x1="9.2168" y1="15" x2="16.7056" y2="27.2619" gradientUnits="userSpaceOnUse">
<stop stop-color="#7E6CF5"/>
<stop offset="1" stop-color="#6CA3F5"/>
</linearGradient>
</defs>
</svg>
