<svg width="32" height="32" viewBox="0 0 32 32" fill="none" xmlns="http://www.w3.org/2000/svg">
<path d="M14.8046 20.6581C14.8046 17.2648 12.6452 14.7969 8.7892 14.7969C8.018 14.7969 7.24679 15.1054 7.09255 15.1825C7.32391 11.635 10.9486 9.5527 13.6478 9.24422V4C8.55784 4.3856 1 8.16453 1 18.8072C1 22.7404 3.54499 26.5964 8.17224 26.5964C12.0283 26.5964 14.8046 23.8972 14.8046 20.6581ZM31 20.6581C31 17.2648 28.8406 14.7969 24.9846 14.7969C24.2134 14.7969 23.4422 15.1054 23.2879 15.1825C23.5193 11.635 27.144 9.5527 29.8432 9.24422V4C24.7532 4.3856 17.2725 8.16453 17.2725 18.8072C17.2725 22.7404 19.7404 26.5964 24.3676 26.5964C28.2236 26.5964 31 23.8972 31 20.6581Z" fill="#BCCBE0"/>
</svg>
